# xmcd
#
# Track frame offsets:
#	150
#	16130
#	30566
#	44514
#	56595
#	73874
#	87628
#	100159
#	111198
#	124376
#	137850
#	149664
#	163010
#	173835
#	185379
#	197235
#	208914
#	222115
#	238604
#	253244
#	269292
#	285889
#	305863
#
# Disc length: 4288 seconds
#
# Revision: 2
# Processed by: cddbd v1.4PL0 Copyright (c) Steve Scherf et al.
# Submitted via: EZCDDA 4.3.2
#
DISCID=6b10be17
DTITLE=Nuevo intérprete - Nuevo título
DYEAR=1900
DGENRE=
TTITLE0=01. Como le hago¡
TTITLE1=04. Enamorate de Mí
TTITLE2=06. De la gloria al infierno
TTITLE3=07. Se acabó el amor
TTITLE4=08. Por amores como tú
TTITLE5=09. Mil Historias
TTITLE6=01. HoySeVaDeMi
TTITLE7=02. NadieSePareceATi
TTITLE8=04.La Que Yo Soñe
TTITLE9=05 Desde El Dia De Tu Adios
TTITLE10=06. MuchasGracias
TTITLE11=07. EssoMeGusta
TTITLE12=08. MiNuevaCancion
TTITLE13=09. TeQuiero
TTITLE14=10. SiEllaSupiera
TTITLE15=11. TeHasClavadoMuyHondo
TTITLE16=12. QuieremeConCarinho
TTITLE17=08. prision de amor
TTITLE18=01. te quiero tanto tonto
TTITLE19=11. Pista 11
TTITLE20=15. Pista 15
TTITLE21=19. Pista 19
TTITLE22=07. AguaSalada
EXTD=
EXTT0=
EXTT1=
EXTT2=
EXTT3=
EXTT4=
EXTT5=
EXTT6=
EXTT7=
EXTT8=
EXTT9=
EXTT10=
EXTT11=
EXTT12=
EXTT13=
EXTT14=
EXTT15=
EXTT16=
EXTT17=
EXTT18=
EXTT19=
EXTT20=
EXTT21=
EXTT22=
PLAYORDER=
